<?xml version="1.0" encoding="utf-8"?>
<!-- Generator: Adobe Illustrator 21.1.0, SVG Export Plug-In . SVG Version: 6.00 Build 0)  -->
<svg version="1.1" id="Layer_1" xmlns="http://www.w3.org/2000/svg" xmlns:xlink="http://www.w3.org/1999/xlink" x="0px" y="0px"
	 viewBox="0 0 462.4 134.1" style="enable-background:new 0 0 462.4 134.1;" xml:space="preserve">
<style type="text/css">
	.st0{fill:#2F4254;}
</style>
<path class="st0" d="M160.8,105.1c4.4,4.4,9.6,6.6,15.6,6.6c6.2,0,11.4-2.1,15.7-6.4c4.4-4.4,6.6-9.6,6.6-15.9V0h22.6v89.5
	c0,12.3-4.4,22.8-13.1,31.7c-9,8.6-19.6,13-31.7,13c-12.4,0-22.9-4.3-31.7-13L160.8,105.1L160.8,105.1z"/>
<polygon class="st0" points="267.3,0 289.5,0 289.5,134.1 267.3,134.1 267.3,0 "/>
<path class="st0" d="M426.7,98.8c-8.8,8.6-19.3,12.9-31.5,12.9c-12.2,0-22.8-4.3-31.7-12.9c-8.6-8.9-12.9-19.5-12.9-31.7
	c0-12.2,4.3-22.7,12.9-31.5c8.9-8.8,19.5-13.1,31.7-13.1c12.2,0,22.7,4.4,31.5,13.1c8.7,8.8,13.1,19.3,13.1,31.5
	C439.8,79.3,435.4,89.9,426.7,98.8L426.7,98.8z M442.5,19.7C429.5,6.6,413.7,0,395.2,0c-18.7,0-34.5,6.6-47.3,19.7
	c-13.1,13.2-19.7,28.9-19.7,47.4c0,18.5,6.6,34.3,19.7,47.3c13,13.2,28.8,19.7,47.3,19.7c18.5,0,34.3-6.6,47.3-19.7
	c13.3-12.9,19.9-28.7,19.9-47.3C462.4,48.6,455.8,32.9,442.5,19.7L442.5,19.7z"/>
<path class="st0" d="M47.4,89.4h39.4L67.1,50L47.4,89.4L47.4,89.4z M98,111.7H36.3l-11.4,22.4H0L67.1-0.1l67.1,134.2h-24.9L98,111.7
	L98,111.7z"/>
</svg>
