<?xml version="1.0"?>
<svg xmlns="http://www.w3.org/2000/svg" xmlns:xlink="http://www.w3.org/1999/xlink" xmlns:svgjs="http://svgjs.com/svgjs" version="1.1" width="512" height="512" x="0" y="0" viewBox="0 0 512 512" style="enable-background:new 0 0 512 512" xml:space="preserve" class=""><circle r="256" cx="256" cy="256" fill="#2c4152" shape="circle"/><g transform="matrix(0.52,0,0,0.52,122.88,112.88)"><g xmlns="http://www.w3.org/2000/svg"><path d="m452 120h-60.946c-7.945-67.478-65.477-120-135.054-120s-127.109 52.522-135.054 120h-60.946c-11.046 0-20 8.954-20 20v352c0 11.046 8.954 20 20 20h392c11.046 0 20-8.954 20-20v-352c0-11.046-8.954-20-20-20zm-196-80c47.484 0 87.019 34.655 94.659 80h-189.318c7.64-45.345 47.175-80 94.659-80zm176 432h-352v-312h40v60c0 11.046 8.954 20 20 20s20-8.954 20-20v-60h192v60c0 11.046 8.954 20 20 20s20-8.954 20-20v-60h40z" fill="#ffffff" data-original="#000000" style="" class=""/></g></g></svg>
